<svg xmlns="http://www.w3.org/2000/svg" viewBox="0 0 220 260" role="img">
  <rect width="220" height="260" rx="18" fill="#eef2ea"/>
  <circle cx="110" cy="46" r="20" fill="#687064"/>
  <path d="M86 88 C100 78 120 78 134 88 L143 143 C132 153 122 158 110 158 C98 158 88 153 77 143 Z" fill="#687064"/>
  <path d="M76 145 C96 166 124 166 144 145 L132 222 L88 222 Z" fill="#687064"/>
  <path d="M84 99 L64 153" stroke="#687064" stroke-width="11" stroke-linecap="round"/>
  <path d="M136 99 L156 153" stroke="#687064" stroke-width="11" stroke-linecap="round"/>
  <path d="M96 220 L84 242" stroke="#687064" stroke-width="15" stroke-linecap="round"/>
  <path d="M124 220 L136 242" stroke="#687064" stroke-width="15" stroke-linecap="round"/>
  <path d="M80 154 C98 174 122 174 140 154" fill="none" stroke="#d9c8b9" stroke-width="9" stroke-linecap="round"/>
</svg>
