<svg xmlns="http://www.w3.org/2000/svg" viewBox="0 0 220 260" role="img">
  <rect width="220" height="260" rx="18" fill="#eef2ea"/>
  <circle cx="110" cy="46" r="20" fill="#687064"/>
  <path d="M88 88 C101 78 119 78 132 88 L141 142 C130 152 121 158 110 158 C99 158 90 152 79 142 Z" fill="#687064"/>
  <path d="M76 145 C96 169 124 169 144 145 L130 222 L90 222 Z" fill="#687064"/>
  <path d="M84 100 L64 153" stroke="#687064" stroke-width="11" stroke-linecap="round"/>
  <path d="M136 100 L156 153" stroke="#687064" stroke-width="11" stroke-linecap="round"/>
  <path d="M96 220 L84 242" stroke="#687064" stroke-width="15" stroke-linecap="round"/>
  <path d="M124 220 L136 242" stroke="#687064" stroke-width="15" stroke-linecap="round"/>
  <path d="M78 154 C97 176 123 176 142 154" fill="none" stroke="#d9c8b9" stroke-width="9" stroke-linecap="round"/>
</svg>
