<svg xmlns="http://www.w3.org/2000/svg" viewBox="0 0 220 260" role="img">
  <rect width="220" height="260" rx="18" fill="#eef2ea"/>
  <circle cx="110" cy="45" r="21" fill="#5f7466"/>
  <path d="M68 86 C91 69 129 69 152 86 L136 143 C126 137 118 134 110 134 C102 134 94 137 84 143 Z" fill="#5f7466"/>
  <path d="M84 143 L96 220 L124 220 L136 143 C126 137 118 134 110 134 C102 134 94 137 84 143 Z" fill="#5f7466"/>
  <path d="M74 96 L51 149" stroke="#5f7466" stroke-width="12" stroke-linecap="round"/>
  <path d="M146 96 L169 149" stroke="#5f7466" stroke-width="12" stroke-linecap="round"/>
  <path d="M99 218 L88 242" stroke="#5f7466" stroke-width="12" stroke-linecap="round"/>
  <path d="M121 218 L132 242" stroke="#5f7466" stroke-width="12" stroke-linecap="round"/>
  <path d="M70 89 C92 78 128 78 150 89" fill="none" stroke="#d9c8b9" stroke-width="8" stroke-linecap="round"/>
</svg>
