<svg xmlns="http://www.w3.org/2000/svg" viewBox="0 0 220 260" role="img">
  <rect width="220" height="260" rx="18" fill="#eef2ea"/>
  <circle cx="110" cy="46" r="21" fill="#536b58"/>
  <path d="M78 86 C96 74 124 74 142 86 L154 150 C143 164 128 171 110 171 C92 171 77 164 66 150 Z" fill="#536b58"/>
  <path d="M79 153 C96 169 124 169 141 153 L128 222 L92 222 Z" fill="#536b58"/>
  <path d="M76 99 L54 154" stroke="#536b58" stroke-width="13" stroke-linecap="round"/>
  <path d="M144 99 L166 154" stroke="#536b58" stroke-width="13" stroke-linecap="round"/>
  <path d="M98 220 L87 242" stroke="#536b58" stroke-width="13" stroke-linecap="round"/>
  <path d="M122 220 L133 242" stroke="#536b58" stroke-width="13" stroke-linecap="round"/>
  <ellipse cx="110" cy="145" rx="41" ry="29" fill="#6f8376" opacity=".48"/>
</svg>
